<svg width="256" height="336" viewBox="0 0 256 336" fill="none" xmlns="http://www.w3.org/2000/svg">
<path d="M224 112H208V80C208 35.84 172.16 0 128 0C83.84 0 48 35.84 48 80V112H32C14.4 112 0 126.4 0 144V304C0 321.6 14.4 336 32 336H224C241.6 336 256 321.6 256 304V144C256 126.4 241.6 112 224 112ZM128 256C110.4 256 96 241.6 96 224C96 206.4 110.4 192 128 192C145.6 192 160 206.4 160 224C160 241.6 145.6 256 128 256ZM177.6 112H78.4V80C78.4 52.64 100.64 30.4 128 30.4C155.36 30.4 177.6 52.64 177.6 80V112Z" fill="white"/>
</svg>
