<svg width="384" height="384" viewBox="0 0 384 384" fill="none" xmlns="http://www.w3.org/2000/svg">
<path d="M232 188C243.046 188 252 179.046 252 168C252 156.954 243.046 148 232 148C220.954 148 212 156.954 212 168C212 179.046 220.954 188 232 188Z" fill="white"/>
<path d="M152 188C163.046 188 172 179.046 172 168C172 156.954 163.046 148 152 148C140.954 148 132 156.954 132 168C132 179.046 140.954 188 152 188Z" fill="white"/>
<path d="M367.04 202.56C367.68 199.2 368 195.68 368 192C368 188.32 367.68 184.8 367.04 181.44C363.04 157.28 345.28 137.6 322.08 130.72C313.6 112.8 301.6 97.12 287.04 84.16C261.76 61.6 228.48 48 192 48C155.52 48 122.24 61.6 96.96 84.16C82.24 97.12 70.24 112.96 61.92 130.72C38.72 137.6 20.96 157.12 16.96 181.44C16.32 184.8 16 188.32 16 192C16 195.68 16.32 199.2 16.96 202.56C20.96 226.72 38.72 246.4 61.92 253.28C70.24 271.04 82.24 286.72 96.64 299.52C121.92 322.24 155.36 336 192 336C228.64 336 262.08 322.24 287.52 299.52C301.92 286.72 313.92 270.88 322.24 253.28C345.28 246.4 363.04 226.88 367.04 202.56ZM304 224C302.4 224 300.96 223.68 299.36 223.52C296.16 234.24 291.52 244.16 285.6 253.28C265.6 283.84 231.2 304 192 304C152.8 304 118.4 283.84 98.4 253.28C92.48 244.16 87.84 234.24 84.64 223.52C83.04 223.68 81.6 224 80 224C62.4 224 48 209.6 48 192C48 174.4 62.4 160 80 160C81.6 160 83.04 160.32 84.64 160.48C87.84 149.76 92.48 139.84 98.4 130.72C118.4 100.16 152.8 80 192 80C231.2 80 265.6 100.16 285.6 130.72C291.52 139.84 296.16 149.76 299.36 160.48C300.96 160.32 302.4 160 304 160C321.6 160 336 174.4 336 192C336 209.6 321.6 224 304 224ZM120 224C132.16 252.32 159.84 272 192 272C224.16 272 251.84 252.32 264 224H120Z" fill="white"/>
</svg>
