<svg width="62" height="35" viewBox="0 0 62 35" fill="none" xmlns="http://www.w3.org/2000/svg">
<path d="M29.1579 1.36V34H20.4219V21.232H8.99788V34H0.261875V1.36L8.99788 1.072V14.368H20.4219V1.36H29.1579ZM51.1764 0.735999C52.8404 0.735999 54.5364 0.975999 56.2644 1.456C58.0244 1.936 59.5284 2.592 60.7764 3.424L58.1844 9.328C56.4884 8.752 55.1764 8.368 54.2484 8.176C53.3524 7.984 52.3604 7.888 51.2724 7.888C49.9604 7.888 48.6964 8.304 47.4804 9.136C46.2964 9.968 45.3204 11.136 44.5524 12.64C43.8164 14.144 43.4484 15.856 43.4484 17.776C43.4484 19.728 43.8324 21.44 44.6004 22.912C45.3684 24.384 46.3764 25.52 47.6244 26.32C48.9044 27.088 50.2324 27.472 51.6084 27.472C53.7524 27.472 55.8164 26.88 57.8004 25.696L61.1124 32.224C59.8644 32.96 58.3444 33.552 56.5524 34C54.7924 34.416 53.0644 34.624 51.3684 34.624C47.9124 34.624 44.9044 33.92 42.3444 32.512C39.7844 31.072 37.8164 29.088 36.4404 26.56C35.0964 24.032 34.4244 21.12 34.4244 17.824C34.4244 14.528 35.1444 11.584 36.5844 8.992C38.0244 6.4 40.0084 4.384 42.5364 2.944C45.0964 1.472 47.9764 0.735999 51.1764 0.735999Z" fill="white"/>
</svg>
